# xmcd
#
# Track frame offsets: 
#        150
#        15532
#        26779
#        43388
#        57980
#        91893
#        105197
#        113675
#        129351
#        143666
#        164173
#
# Disc length: 2423 seconds
#
# Revision: 0
# Processed by: cddbd v1.5.1PL0 Copyright (c) Steve Scherf et al.
# Submitted via: ExactAudioCopy v0.95a5
#
DISCID=8d09750b
DTITLE=Various Artist - COUNTRY pisnicky pro tiraky
DYEAR=1999
DGENRE=Country
TTITLE0=SEDMA MILE
TTITLE1=CESTY TOULAVY
TTITLE2=NEBESTI JEZDCI
TTITLE3=JIZANSKY ROK
TTITLE4=ZRADNY BANJO, KDYZ NAS TATA HRAL, SLAPEJ DAL, BLUES FOLSOMSKE 
TTITLE4=VEZNICE, ORANZOVY EXPRES, ROVNOU JO TADY ROVNOU
TTITLE5=SNIDANE V TRAVE
TTITLE6=SOCHA SVOBODY
TTITLE7=EL PASO
TTITLE8=LETNI PRIBEH
TTITLE9=DON DIEGO
TTITLE10=DUM U VYCHAZEJICIHO SLUNCE
EXTD=
EXTT0=
EXTT1=
EXTT2=
EXTT3=
EXTT4=
EXTT5=
EXTT6=
EXTT7=
EXTT8=
EXTT9=
EXTT10=
PLAYORDER=
